<svg xmlns="http://www.w3.org/2000/svg" viewBox="0 0 512 512" width="512" height="512">
  <defs>
    <linearGradient id="bg" x1="0%" y1="0%" x2="100%" y2="100%">
      <stop offset="0%" stop-color="#1a1a2e"/>
      <stop offset="100%" stop-color="#16213e"/>
    </linearGradient>
    <filter id="glow">
      <feGaussianBlur stdDeviation="8" result="blur"/>
      <feMerge><feMergeNode in="blur"/><feMergeNode in="SourceGraphic"/></feMerge>
    </filter>
  </defs>
  <rect width="512" height="512" rx="92" fill="url(#bg)"/>
  <circle cx="256" cy="180" r="60" fill="#f59e0b" filter="url(#glow)"/>
  <g stroke="#fbbf24" stroke-width="8" stroke-linecap="round">
    <line x1="256" y1="100" x2="256" y2="80"/>
    <line x1="256" y1="280" x2="256" y2="260"/>
    <line x1="176" y1="180" x2="156" y2="180"/>
    <line x1="356" y1="180" x2="336" y2="180"/>
    <line x1="199" y1="123" x2="185" y2="109"/>
    <line x1="327" y1="237" x2="313" y2="223"/>
    <line x1="199" y1="237" x2="185" y2="223"/>
    <line x1="327" y1="123" x2="313" y2="109"/>
  </g>
  <rect x="120" y="290" width="272" height="120" rx="8" fill="#1e3a5f" stroke="#3b82f6" stroke-width="3"/>
  <g fill="rgba(59,130,246,0.3)">
    <rect x="132" y="300" width="58" height="48" rx="2"/>
    <rect x="196" y="300" width="58" height="48" rx="2"/>
    <rect x="260" y="300" width="58" height="48" rx="2"/>
    <rect x="324" y="300" width="58" height="48" rx="2"/>
    <rect x="132" y="354" width="58" height="48" rx="2"/>
    <rect x="196" y="354" width="58" height="48" rx="2"/>
    <rect x="260" y="354" width="58" height="48" rx="2"/>
    <rect x="324" y="354" width="58" height="48" rx="2"/>
  </g>
  <text x="256" y="460" text-anchor="middle" font-family="sans-serif" font-weight="bold" font-size="52" fill="#ffffff">PV Engineer</text>
</svg>